<?xml version="1.0" encoding="UTF-8"?>
<svg width="24px" height="24px" viewBox="0 0 24 24" version="1.1" xmlns="http://www.w3.org/2000/svg" xmlns:xlink="http://www.w3.org/1999/xlink">
    <!-- Generator: Sketch 55.2 (78181) - https://sketchapp.com -->
    <title>pump</title>
    <desc>Created with Sketch.</desc>
    <g id="Page-1" stroke="none" stroke-width="1" fill="none" fill-rule="evenodd">
        <g id="Group-5" transform="translate(-8.000000, -8.000000)" fill="#444E86" fill-rule="nonzero">
            <g id="pump" transform="translate(8.000000, 8.000000)">
                <path d="M5.34,8.10996831 L5.34,8.10996831 C4.91830328,8.10733948 4.51282216,8.27231061 4.21276213,8.56861988 C3.91270211,8.86492916 3.74264384,9.26830317 3.74,9.69 L3.74,18.54 C3.74549853,19.4197479 4.46023496,20.13 5.34,20.13 L5.34,20.13 C6.21813275,20.13 6.93,19.4181328 6.93,18.54 L6.93,9.69 C6.92450162,8.815775 6.21424229,8.10996831 5.34,8.10996831 Z" id="Path"></path>
                <polygon id="Path" points="6.59 3.77 8.18 3.77 8.18 2.98 6.59 2.98 6.59 0 4.05 0 4.05 2.98 2.49 2.98 2.49 3.77 4.05 3.77"></polygon>
                <path d="M4.05,7.76 L4.65,7.47 C5.07766187,7.2694791 5.57233813,7.2694791 6,7.47 L6.59,7.76 L6.59,4.76 L8.18,4.76 L8.18,4 L2.49,4 L2.49,4.8 L4.05,4.8 L4.05,7.76 Z" id="Path"></path>
                <path d="M0,12 L0,16.22 C0,16.5348023 0.255197693,16.79 0.57,16.79 L3.21,16.79 L3.21,15.87 L1.32,15.87 L1.32,15.4 L3.21,15.4 L3.21,14.86 L1.32,14.86 L1.32,14.37 L3.21,14.37 L3.21,13.84 L1.32,13.84 L1.32,13.35 L3.21,13.35 L3.21,12.81 L1.32,12.81 L1.32,12.32 L3.21,12.32 L3.21,11.44 L0.57,11.44 C0.259061943,11.44 0.00545505001,11.6891098 0,12 Z" id="Path"></path>
                <path d="M11.08,19.34 L11.08,8.9 L10.38,8.9 L10.38,9.48 L9.81,9.48 C9.49906194,9.47995215 9.24545505,9.72910979 9.24,10.04 L9.24,11.04 L7.41,11.04 L7.41,17.18 L9.24,17.18 L9.24,18.18 C9.24545505,18.4908902 9.49906194,18.7400479 9.81,18.74 L10.38,18.74 L10.38,19.32 L11.08,19.34 Z" id="Path"></path>
                <path d="M23.43,9.48 L22.87,9.48 L22.87,8.9 L22.16,8.9 L22.16,19.34 L22.87,19.34 L22.87,18.76 L23.43,18.76 C23.5802462,18.7626834 23.725267,18.7048703 23.8324602,18.5995577 C23.9396534,18.4942451 24.000024,18.3502702 24,18.2 L24,10 C23.9787614,9.70254785 23.7281474,9.47391756 23.43,9.48 Z" id="Path"></path>
                <rect id="Rectangle" x="11.54" y="10.46" width="10.07" height="3.25"></rect>
                <rect id="Rectangle" x="11.54" y="14.94" width="10.07" height="2.95"></rect>
                <rect id="Rectangle" x="11.54" y="13.99" width="10.07" height="1"></rect>
                <rect id="Rectangle" x="11.54" y="9.55" width="10.07" height="1"></rect>
                <rect id="Rectangle" x="11.54" y="18.19" width="10.07" height="1"></rect>
                <rect id="Rectangle" x="10.59" y="22.9" width="11.97" height="1.1"></rect>
                <path d="M20.54,19.8 C20.5247581,19.6503872 20.5247581,19.4996128 20.54,19.35 L12.9,19.35 C12.9,19.47 12.9,19.59 12.9,19.71 C12.8933886,21.1033998 11.9282243,22.3088196 10.57,22.62 L22.57,22.62 C21.3624345,22.2074188 20.5480291,21.0760773 20.54,19.8 L20.54,19.8 Z" id="Path"></path>
            </g>
        </g>
    </g>
</svg>