<?xml version="1.0" encoding="UTF-8"?>
<svg width="24px" height="23px" viewBox="0 0 24 23" version="1.1" xmlns="http://www.w3.org/2000/svg" xmlns:xlink="http://www.w3.org/1999/xlink">
    <!-- Generator: Sketch 55.2 (78181) - https://sketchapp.com -->
    <title>Combined Shape</title>
    <desc>Created with Sketch.</desc>
    <g id="Page-1" stroke="none" stroke-width="1" fill="none" fill-rule="evenodd">
        <g id="Group-4" transform="translate(-8.000000, -9.000000)" fill="#955196" fill-rule="nonzero">
            <path d="M22.0342188,25.5155041 C21.5457169,25.7320996 21.1332074,26.0267142 20.6739996,26.3547247 C19.7619025,27.0062166 18.7467406,27.7314177 17.0236899,27.9406094 L17.0236899,27.9703047 L17.0236899,32 L14.0157933,32 L14.0157933,28 L14.0157933,27.7561188 C12.8482448,27.4422039 12.0543585,26.8751104 11.3258987,26.3547247 C10.3779962,25.6776413 9.6293791,25.1428571 8,25.1428571 L8,22.7619048 C10.3706718,22.7619048 11.5944609,23.6358507 12.674203,24.4068701 C13.1275621,24.7307028 13.5354048,25.0220558 14.0157933,25.2379216 L14.0157933,17.994214 C12.8482448,17.6802991 12.0543585,17.1132057 11.3258987,16.5928199 C10.3779962,15.9157366 9.6293791,15.3809524 8,15.3809524 L8,13 C10.3706718,13 11.5944609,13.873946 12.674203,14.6449653 C13.1275621,14.968798 13.5354048,15.2601511 14.0157933,15.4760168 L14.0157933,9 L17.0236899,9 L17.0236899,15.7723428 C17.9950339,15.5957524 18.6025679,15.1617106 19.3260004,14.6449653 C20.0580908,14.1220484 20.8565796,13.5517877 22.0342188,13.2389309 L22.0342188,9 L25.0421154,9 L25.0421154,13.0616398 C26.7541204,13.2736913 27.7652745,13.9958092 28.6741013,14.6449653 C29.3060363,15.0963542 30.4146692,15.5004134 32,15.8571429 L32,18.2380952 C29.6036928,17.6554646 28.0457268,17.1070395 27.3261022,16.5928199 C26.6070412,16.0793626 26.0027598,15.6477379 25.0421154,15.4691089 L25.0421154,22.8235446 C26.7541204,23.0355961 27.7652745,23.757714 28.6741013,24.4068701 C29.3060363,24.858259 30.4146692,25.2623181 32,25.6190476 L32,28 C29.6036928,27.4173694 28.0457268,26.8689443 27.3261022,26.3547247 C26.6070412,25.8412673 26.0027598,25.4096427 25.0421154,25.2310137 L25.0421154,32 L22.0342188,32 L22.0342188,25.5155041 Z M22.0342188,15.7535993 C21.5457169,15.9701948 21.1332074,16.2648094 20.6739996,16.5928199 C19.7619025,17.2443119 18.7467406,17.9695129 17.0236899,18.1787046 L17.0236899,25.5342476 C17.9950339,25.3576572 18.6025679,24.9236154 19.3260004,24.4068701 C20.0580908,23.8839532 20.8565796,23.3136925 22.0342188,23.0008356 L22.0342188,15.7535993 Z" id="Combined-Shape"></path>
        </g>
    </g>
</svg>