<?xml version="1.0" encoding="UTF-8"?>
<svg width="24px" height="24px" viewBox="0 0 24 24" version="1.1" xmlns="http://www.w3.org/2000/svg" xmlns:xlink="http://www.w3.org/1999/xlink">
    <!-- Generator: Sketch 55.2 (78181) - https://sketchapp.com -->
    <title>water</title>
    <desc>Created with Sketch.</desc>
    <g id="Page-1" stroke="none" stroke-width="1" fill="none" fill-rule="evenodd">
        <g id="Group-6" transform="translate(-8.000000, -8.000000)" fill="#013E5D" fill-rule="nonzero">
            <g id="water" transform="translate(8.000000, 8.000000)">
                <path d="M22.8429375,22.59375 L22.8429375,0 L10.7969062,0 L10.7969062,8.296875 L4.546875,8.296875 L4.546875,11.1070781 L1.29689063,13.1070938 L1.29689063,15.796875 L9.20315625,15.796875 L9.20315625,13.1070938 L5.953125,11.1070781 L5.953125,9.703125 L10.7969062,9.703125 L10.7969062,22.59375 L9.20315625,22.59375 L9.20315625,17.203125 L1.29689063,17.203125 L1.29689063,22.59375 L0,22.59375 L0,24 L24,24 L24,22.59375 L22.8429375,22.59375 Z M7.79690625,22.59375 L2.70314062,22.59375 L2.70314062,21.2031094 L7.79690625,21.2031094 L7.79690625,22.59375 Z M15.4990781,3.52879687 C15.8917031,2.98284375 16.28025,2.54859375 16.2966094,2.53040625 L16.8199219,1.94723437 L17.3432344,2.53040625 C17.3595937,2.54864062 17.7481406,2.98284375 18.1407656,3.52879687 C18.9315937,4.6284375 19.0230469,5.1804375 19.0230469,5.49998437 C19.0230469,6.71479687 18.0347344,7.70310937 16.8199219,7.70310937 C15.6051094,7.70310937 14.6167969,6.71479687 14.6167969,5.49998437 C14.6167969,5.1804375 14.70825,4.62848437 15.4990781,3.52879687 Z M14.1167813,9.50001562 L15.5230313,9.50001562 L15.5230313,11.5000312 L14.1167813,11.5000312 L14.1167813,9.50001562 Z M14.1167813,12.9999844 L15.5230313,12.9999844 L15.5230313,15 L14.1167813,15 L14.1167813,12.9999844 Z M19.5230156,22.59375 L18.1167656,22.59375 L18.1167656,18.703125 L15.5230313,18.703125 L15.5230313,22.59375 L14.1167813,22.59375 L14.1167813,17.296875 L19.5230156,17.296875 L19.5230156,22.59375 Z M19.5230156,15 L18.1167656,15 L18.1167656,12.9999844 L19.5230156,12.9999844 L19.5230156,15 Z M19.5230156,11.4999844 L18.1167656,11.4999844 L18.1167656,9.49996875 L19.5230156,9.49996875 L19.5230156,11.4999844 Z" id="Shape"></path>
                <path d="M16.8199219,4.10507813 C16.3662188,4.70245313 16.0253906,5.2831875 16.0230469,5.50007813 C16.0230469,5.93939063 16.3805156,6.29685938 16.8199219,6.29685938 C17.2592812,6.29685938 17.61675,5.9394375 17.6167969,5.50007813 C17.6144531,5.2831875 17.273625,4.7025 16.8199219,4.10507813 Z" id="Path"></path>
            </g>
        </g>
    </g>
</svg>