<?xml version="1.0" encoding="UTF-8"?>
<svg width="22px" height="22px" viewBox="0 0 22 22" version="1.1" xmlns="http://www.w3.org/2000/svg" xmlns:xlink="http://www.w3.org/1999/xlink">
    <!-- Generator: Sketch 55.2 (78181) - https://sketchapp.com -->
    <title>water</title>
    <desc>Created with Sketch.</desc>
    <g id="Page-1" stroke="none" stroke-width="1" fill="none" fill-rule="evenodd">
        <g id="Group-7" transform="translate(-9.000000, -9.000000)">
            <g id="water" transform="translate(10.000000, 10.000000)">
                <path d="M19.0357812,18.828125 L19.0357812,0 L8.99742188,0 L8.99742188,6.9140625 L3.7890625,6.9140625 L3.7890625,9.25589844 L1.08074219,10.9225781 L1.08074219,13.1640625 L7.66929688,13.1640625 L7.66929688,10.9225781 L4.9609375,9.25589844 L4.9609375,8.0859375 L8.99742188,8.0859375 L8.99742188,18.828125 L7.66929688,18.828125 L7.66929688,14.3359375 L1.08074219,14.3359375 L1.08074219,18.828125 L0,18.828125 L0,20 L20,20 L20,18.828125 L19.0357812,18.828125 Z M6.49742187,18.828125 L2.25261719,18.828125 L2.25261719,17.6692578 L6.49742187,17.6692578 L6.49742187,18.828125 Z M12.9158984,2.94066406 C13.2430859,2.48570313 13.566875,2.12382813 13.5805078,2.10867188 L14.0166016,1.62269531 L14.4526953,2.10867188 C14.4663281,2.12386719 14.7901172,2.48570313 15.1173047,2.94066406 C15.7763281,3.85703125 15.8525391,4.31703125 15.8525391,4.58332031 C15.8525391,5.59566406 15.0289453,6.41925781 14.0166016,6.41925781 C13.0042578,6.41925781 12.1806641,5.59566406 12.1806641,4.58332031 C12.1806641,4.31703125 12.256875,3.85707031 12.9158984,2.94066406 Z M11.7639844,7.91667969 L12.9358594,7.91667969 L12.9358594,9.58335938 L11.7639844,9.58335938 L11.7639844,7.91667969 Z M11.7639844,10.8333203 L12.9358594,10.8333203 L12.9358594,12.5 L11.7639844,12.5 L11.7639844,10.8333203 Z M16.2691797,18.828125 L15.0973047,18.828125 L15.0973047,15.5859375 L12.9358594,15.5859375 L12.9358594,18.828125 L11.7639844,18.828125 L11.7639844,14.4140625 L16.2691797,14.4140625 L16.2691797,18.828125 Z M16.2691797,12.5 L15.0973047,12.5 L15.0973047,10.8333203 L16.2691797,10.8333203 L16.2691797,12.5 Z M16.2691797,9.58332031 L15.0973047,9.58332031 L15.0973047,7.91664063 L16.2691797,7.91664063 L16.2691797,9.58332031 Z" id="Shape" stroke="#013E5D" fill-rule="nonzero"></path>
                <rect id="Rectangle" fill="#013E5D" x="15" y="8" width="1" height="2"></rect>
                <rect id="Rectangle" fill="#013E5D" x="12" y="8" width="1" height="2"></rect>
                <rect id="Rectangle" fill="#013E5D" x="12" y="11" width="1" height="2"></rect>
                <rect id="Rectangle" fill="#013E5D" x="15" y="11" width="1" height="2"></rect>
                <rect id="Rectangle" fill="#013E5D" x="12" y="14" width="1" height="5"></rect>
                <rect id="Rectangle" fill="#013E5D" x="12" y="14" width="4" height="2"></rect>
                <path d="M14.0166016,3.42089844 C13.6385156,3.91871094 13.3544922,4.40265625 13.3525391,4.58339844 C13.3525391,4.94949219 13.6504297,5.24738281 14.0166016,5.24738281 C14.3827344,5.24738281 14.680625,4.94953125 14.6806641,4.58339844 C14.6787109,4.40265625 14.3946875,3.91875 14.0166016,3.42089844 Z" id="Path" fill="#013E5D" fill-rule="nonzero"></path>
            </g>
        </g>
    </g>
</svg>