<?xml version="1.0" encoding="UTF-8"?>
<svg width="24px" height="15px" viewBox="0 0 24 15" version="1.1" xmlns="http://www.w3.org/2000/svg" xmlns:xlink="http://www.w3.org/1999/xlink">
    <!-- Generator: Sketch 55.2 (78181) - https://sketchapp.com -->
    <title>Combined Shape</title>
    <desc>Created with Sketch.</desc>
    <g id="Page-1" stroke="none" stroke-width="1" fill="none" fill-rule="evenodd">
        <g id="Group-9" transform="translate(-8.000000, -13.000000)" fill="#955196" fill-rule="nonzero">
            <path d="M32,15.8571429 L32,18.2380952 C29.6036928,17.6554646 28.0457268,17.1070395 27.3261022,16.5928199 C26.3778945,15.9157366 25.6292774,15.3809524 23.9998983,15.3809524 C22.3708244,15.3809524 21.6219021,15.9157366 20.6739996,16.5928199 C19.5945626,17.3638393 18.3707736,18.2380952 16.0001018,18.2380952 C13.6291247,18.2380952 12.4056408,17.3641493 11.3258987,16.5928199 C10.3779962,15.9157366 9.6293791,15.3809524 8,15.3809524 L8,13 C10.3706718,13 11.5944609,13.873946 12.674203,14.6449653 C13.6221056,15.3220487 14.3710278,15.8571429 16.0001018,15.8571429 C17.6291756,15.8571429 18.378098,15.3220487 19.3260004,14.6449653 C20.4054374,13.873946 21.6292265,13 23.9998983,13 C26.3708753,13 27.5946644,13.873946 28.6741013,14.6449653 C29.3060363,15.0963542 30.4146692,15.5004134 32,15.8571429 Z M32,25.6190476 L32,28 C29.6036928,27.4173694 28.0457268,26.8689443 27.3261022,26.3547247 C26.3778945,25.6776413 25.6292774,25.1428571 23.9998983,25.1428571 C22.3708244,25.1428571 21.6219021,25.6776413 20.6739996,26.3547247 C19.5945626,27.125744 18.3707736,28 16.0001018,28 C13.6291247,28 12.4056408,27.126054 11.3258987,26.3547247 C10.3779962,25.6776413 9.6293791,25.1428571 8,25.1428571 L8,22.7619048 C10.3706718,22.7619048 11.5944609,23.6358507 12.674203,24.4068701 C13.6221056,25.0839534 14.3710278,25.6190476 16.0001018,25.6190476 C17.6291756,25.6190476 18.378098,25.0839534 19.3260004,24.4068701 C20.4054374,23.6358507 21.6292265,22.7619048 23.9998983,22.7619048 C26.3708753,22.7619048 27.5946644,23.6358507 28.6741013,24.4068701 C29.3060363,24.858259 30.4146692,25.2623181 32,25.6190476 Z" id="Combined-Shape"></path>
        </g>
    </g>
</svg>