<?xml version="1.0" encoding="UTF-8"?>
<svg width="40px" height="40px" viewBox="0 0 40 40" version="1.1" xmlns="http://www.w3.org/2000/svg" xmlns:xlink="http://www.w3.org/1999/xlink">
    <!-- Generator: Sketch 55.2 (78181) - https://sketchapp.com -->
    <title>Group 5</title>
    <desc>Created with Sketch.</desc>
    <defs>
        <circle id="path-1" cx="16" cy="16" r="16"></circle>
        <filter x="-18.8%" y="-18.8%" width="137.5%" height="137.5%" filterUnits="objectBoundingBox" id="filter-2">
            <feOffset dx="0" dy="0" in="SourceAlpha" result="shadowOffsetOuter1"></feOffset>
            <feGaussianBlur stdDeviation="2" in="shadowOffsetOuter1" result="shadowBlurOuter1"></feGaussianBlur>
            <feColorMatrix values="0 0 0 0 0   0 0 0 0 0   0 0 0 0 0  0 0 0 0.4 0" type="matrix" in="shadowBlurOuter1"></feColorMatrix>
        </filter>
    </defs>
    <g id="Page-1" stroke="none" stroke-width="1" fill="none" fill-rule="evenodd">
        <g id="Group-5" transform="translate(4.000000, 4.000000)">
            <g id="Oval">
                <use fill="black" fill-opacity="1" filter="url(#filter-2)" xlink:href="#path-1"></use>
                <use fill="#FFFFFF" fill-rule="evenodd" xlink:href="#path-1"></use>
            </g>
            <g id="pump" transform="translate(8.000000, 8.000000)" fill="#444E86" fill-rule="nonzero">
                <path d="M3.56,5.40664554 L3.56,5.40664554 C3.27886885,5.40489299 3.00854811,5.51487374 2.80850809,5.71241325 C2.60846807,5.90995277 2.49509589,6.17886878 2.49333333,6.46 L2.49333333,12.36 C2.49699902,12.9464986 2.97348997,13.42 3.56,13.42 L3.56,13.42 C4.14542183,13.42 4.62,12.9454218 4.62,12.36 L4.62,6.46 C4.61633441,5.87718334 4.14282819,5.40664554 3.56,5.40664554 Z" id="Path"></path>
                <polygon id="Path" points="4.39333333 2.51333333 5.45333333 2.51333333 5.45333333 1.98666667 4.39333333 1.98666667 4.39333333 0 2.7 0 2.7 1.98666667 1.66 1.98666667 1.66 2.51333333 2.7 2.51333333"></polygon>
                <path d="M2.7,5.17333333 L3.1,4.98 C3.38510791,4.8463194 3.71489209,4.8463194 4,4.98 L4.39333333,5.17333333 L4.39333333,3.17333333 L5.45333333,3.17333333 L5.45333333,2.66666667 L1.66,2.66666667 L1.66,3.2 L2.7,3.2 L2.7,5.17333333 Z" id="Path"></path>
                <path d="M0,8 L0,10.8133333 C0,11.0232015 0.170131795,11.1933333 0.38,11.1933333 L2.14,11.1933333 L2.14,10.58 L0.88,10.58 L0.88,10.2666667 L2.14,10.2666667 L2.14,9.90666667 L0.88,9.90666667 L0.88,9.58 L2.14,9.58 L2.14,9.22666667 L0.88,9.22666667 L0.88,8.9 L2.14,8.9 L2.14,8.54 L0.88,8.54 L0.88,8.21333333 L2.14,8.21333333 L2.14,7.62666667 L0.38,7.62666667 C0.172707962,7.62666667 0.00363670001,7.79273986 0,8 Z" id="Path"></path>
                <path d="M7.38666667,12.8933333 L7.38666667,5.93333333 L6.92,5.93333333 L6.92,6.32 L6.54,6.32 C6.33270796,6.3199681 6.1636367,6.4860732 6.16,6.69333333 L6.16,7.36 L4.94,7.36 L4.94,11.4533333 L6.16,11.4533333 L6.16,12.12 C6.1636367,12.3272601 6.33270796,12.4933652 6.54,12.4933333 L6.92,12.4933333 L6.92,12.88 L7.38666667,12.8933333 Z" id="Path"></path>
                <path d="M15.62,6.32 L15.2466667,6.32 L15.2466667,5.93333333 L14.7733333,5.93333333 L14.7733333,12.8933333 L15.2466667,12.8933333 L15.2466667,12.5066667 L15.62,12.5066667 C15.7201642,12.5084556 15.8168447,12.4699135 15.8883068,12.3997051 C15.9597689,12.3294967 16.000016,12.2335135 16,12.1333333 L16,6.66666667 C15.9858409,6.46836524 15.8187649,6.31594504 15.62,6.32 Z" id="Path"></path>
                <rect id="Rectangle" x="7.69333333" y="6.97333333" width="6.71333333" height="2.16666667"></rect>
                <rect id="Rectangle" x="7.69333333" y="9.96" width="6.71333333" height="1.96666667"></rect>
                <rect id="Rectangle" x="7.69333333" y="9.32666667" width="6.71333333" height="1"></rect>
                <rect id="Rectangle" x="7.69333333" y="6.36666667" width="6.71333333" height="1"></rect>
                <rect id="Rectangle" x="7.69333333" y="12.1266667" width="6.71333333" height="1"></rect>
                <rect id="Rectangle" x="7.06" y="15.2666667" width="7.98" height="1"></rect>
                <path d="M13.6933333,13.2 C13.683172,13.1002581 13.683172,12.9997419 13.6933333,12.9 L8.6,12.9 C8.6,12.98 8.6,13.06 8.6,13.14 C8.59559243,14.0689332 7.95214956,14.8725464 7.04666667,15.08 L15.0466667,15.08 C14.241623,14.8049458 13.6986861,14.0507182 13.6933333,13.2 L13.6933333,13.2 Z" id="Path"></path>
            </g>
        </g>
    </g>
</svg>