<?xml version="1.0" encoding="UTF-8"?>
<svg width="29px" height="40px" viewBox="0 0 29 40" version="1.1" xmlns="http://www.w3.org/2000/svg" xmlns:xlink="http://www.w3.org/1999/xlink">
    <!-- Generator: Sketch 55.2 (78181) - https://sketchapp.com -->
    <title>maps-and-flags copy</title>
    <desc>Created with Sketch.</desc>
    <g id="Page-1" stroke="none" stroke-width="1" fill="none" fill-rule="evenodd">
        <g id="maps-and-flags-copy" fill="#0072CE" fill-rule="nonzero">
            <path d="M14.53125,0 C6.54335937,0 0.044765625,6.49859375 0.044765625,14.4864062 C0.044765625,24.3995312 13.00875,38.9525781 13.5607031,39.5672656 C14.0791406,40.1446875 14.9842969,40.1436719 15.5017969,39.5672656 C16.05375,38.9525781 29.0177344,24.3995313 29.0177344,14.4864062 C29.0177344,6.49859375 22.5190625,0 14.53125,0 Z M14.53125,21.7749219 C10.5123438,21.7749219 7.2428125,18.5053125 7.2428125,14.4864062 C7.2428125,10.4675 10.5124219,7.19796875 14.53125,7.19796875 C18.5500781,7.19796875 21.8196094,10.4675781 21.8196094,14.4864844 C21.8196094,18.5053906 18.5500781,21.7749219 14.53125,21.7749219 Z" id="Shape"></path>
        </g>
    </g>
</svg>