<?xml version="1.0" encoding="UTF-8"?>
<svg width="40px" height="40px" viewBox="0 0 40 40" version="1.1" xmlns="http://www.w3.org/2000/svg" xmlns:xlink="http://www.w3.org/1999/xlink">
    <!-- Generator: Sketch 55.2 (78181) - https://sketchapp.com -->
    <title>Group</title>
    <desc>Created with Sketch.</desc>
    <defs>
        <circle id="path-1" cx="16" cy="16" r="16"></circle>
        <filter x="-18.8%" y="-18.8%" width="137.5%" height="137.5%" filterUnits="objectBoundingBox" id="filter-2">
            <feOffset dx="0" dy="0" in="SourceAlpha" result="shadowOffsetOuter1"></feOffset>
            <feGaussianBlur stdDeviation="2" in="shadowOffsetOuter1" result="shadowBlurOuter1"></feGaussianBlur>
            <feColorMatrix values="0 0 0 0 0   0 0 0 0 0   0 0 0 0 0  0 0 0 0.4 0" type="matrix" in="shadowBlurOuter1"></feColorMatrix>
        </filter>
    </defs>
    <g id="Page-1" stroke="none" stroke-width="1" fill="none" fill-rule="evenodd">
        <g id="Group" transform="translate(4.000000, 4.000000)">
            <g id="Oval">
                <use fill="black" fill-opacity="1" filter="url(#filter-2)" xlink:href="#path-1"></use>
                <use fill="#002D72" fill-rule="evenodd" xlink:href="#path-1"></use>
            </g>
            <g id="village" transform="translate(8.000000, 10.000000)" fill-rule="nonzero">
                <polygon id="Path" fill="#000000" points="8.9362793 8.30078125 9.87927244 8.30078125 9.87927244 9.2435913 8.9362793 9.2435913"></polygon>
                <path d="M16,12.5830078 L16,11.6455078 L14.5501709,11.6455078 L14.5501709,8.63208006 L14.9647217,8.91528319 L15.4876709,8.14990234 L15.4935303,8.14123534 L15.4876709,8.13720703 L14.5501709,7.49670409 L12.2593994,5.93176269 L9.96875,7.49670409 L9.03125,8.13720703 L9.03125,3.57849122 L9.9436035,4.35473631 L10.5510254,3.64074706 L6.27185059,0 L1.99267578,3.64074706 L2.60009766,4.35473631 L3.51245119,3.57849122 L3.51245119,11.6455078 L1.96020506,11.6455078 L1.96020506,10.3845215 C2.55371094,10.1875 2.98303222,9.62756347 2.98303222,8.96887206 C2.98303222,7.99096681 1.93981934,6.93286131 1.82080078,6.81542969 L1.49145506,6.4904785 L1.16223144,6.81542969 C1.04321288,6.93286131 0,7.99096681 0,8.96887206 C0,9.62756347 0.429321281,10.1875 1.02282716,10.3845215 L1.02282716,11.6455078 L0.000244140625,11.6455078 L0.000244140625,12.5830078 L16,12.5830078 Z M5.02001953,3.9296875 L7.52368162,3.9296875 L7.52368162,6.43322753 L5.02001953,6.43322753 L5.02001953,3.9296875 Z M6.69494628,11.6455078 L6.69494628,10.4200439 C6.69494628,10.1867676 6.50512694,9.99694825 6.27185059,9.99694825 C6.03857422,9.99694825 5.84875487,10.1867676 5.84875487,10.4200439 L5.84875487,11.6455078 L4.91125487,11.6455078 L4.91125487,10.4200439 C4.91125487,9.66979981 5.52160644,9.05944825 6.27185059,9.05944825 C7.02209472,9.05944825 7.63244628,9.66979981 7.63244628,10.4200439 L7.63244628,11.6455078 L6.69494628,11.6455078 Z M9.03125,11.6455078 L9.03125,8.14990234 L9.55419922,8.91528319 L9.96875,8.63208006 L9.96875,11.6455078 L9.03125,11.6455078 Z M12.6826172,11.6455078 L12.6826172,10.1204834 L11.8364258,10.1204834 L11.8364258,11.6455078 L10.8989258,11.6455078 L10.8989258,9.18298341 L13.6201172,9.18298341 L13.6201172,11.6455078 L12.6826172,11.6455078 Z" id="Shape" fill="#FFFFFF"></path>
            </g>
        </g>
    </g>
</svg>