<?xml version="1.0" encoding="UTF-8"?>
<svg width="40px" height="40px" viewBox="0 0 40 40" version="1.1" xmlns="http://www.w3.org/2000/svg" xmlns:xlink="http://www.w3.org/1999/xlink">
    <!-- Generator: Sketch 55.2 (78181) - https://sketchapp.com -->
    <title>Group 7</title>
    <desc>Created with Sketch.</desc>
    <defs>
        <circle id="path-1" cx="16" cy="16" r="16"></circle>
        <filter x="-18.8%" y="-18.8%" width="137.5%" height="137.5%" filterUnits="objectBoundingBox" id="filter-2">
            <feOffset dx="0" dy="0" in="SourceAlpha" result="shadowOffsetOuter1"></feOffset>
            <feGaussianBlur stdDeviation="2" in="shadowOffsetOuter1" result="shadowBlurOuter1"></feGaussianBlur>
            <feColorMatrix values="0 0 0 0 0   0 0 0 0 0   0 0 0 0 0  0 0 0 0.4 0" type="matrix" in="shadowBlurOuter1"></feColorMatrix>
        </filter>
    </defs>
    <g id="Page-1" stroke="none" stroke-width="1" fill="none" fill-rule="evenodd">
        <g id="Group-7" transform="translate(4.000000, 4.000000)">
            <g id="Oval">
                <use fill="black" fill-opacity="1" filter="url(#filter-2)" xlink:href="#path-1"></use>
                <use fill="#FFFFFF" fill-rule="evenodd" xlink:href="#path-1"></use>
            </g>
            <g id="water" transform="translate(8.000000, 8.000000)" fill="#013E5D">
                <path d="M15.6363636,14.0568182 L15.6363636,15.6363636 L0.363636364,15.6363636 L0.363636364,14.0568182 L1.14963068,14.0568182 L1.14963068,10.7897727 L6.66857955,10.7897727 L6.66857955,14.0568182 L6.90721591,14.0568182 L6.90721591,6.97159091 L4.69886364,6.97159091 L4.69886364,7.25563678 L6.66857955,8.46776746 L6.66857955,10.6647727 L1.14963068,10.6647727 L1.14963068,8.467769 L3.11931818,7.25563832 L3.11931818,5.39204545 L6.90721591,5.39204545 L6.90721591,0.363636364 L14.9351136,0.363636364 L14.9351136,14.0568182 L15.6363636,14.0568182 Z M14.2078409,14.7840909 L14.2078409,1.09090909 L7.63448864,1.09090909 L7.63448864,6.11931818 L3.84659091,6.11931818 L3.84659091,7.66203214 L1.87690341,8.87416282 L1.87690341,9.9375 L5.94130682,9.9375 L5.94130682,8.87416435 L3.97159091,7.66203367 L3.97159091,6.24431818 L7.63448864,6.24431818 L7.63448864,14.7840909 L5.94130682,14.7840909 L5.94130682,11.5170455 L1.87690341,11.5170455 L1.87690341,14.7840909 L1.09090909,14.7840909 L1.09090909,14.9090909 L14.9090909,14.9090909 L14.9090909,14.7840909 L14.2078409,14.7840909 Z M5.81630682,14.7840909 L2.00190341,14.7840909 L2.00190341,13.2140057 L5.81630682,13.2140057 L5.81630682,14.7840909 Z M5.08903409,13.9412784 L2.72917614,13.9412784 L2.72917614,14.0568182 L5.08903409,14.0568182 L5.08903409,13.9412784 Z M10.3333613,2.01798805 L10.9211648,1.36294838 L11.1918091,1.66455055 L11.5089929,2.01801553 C11.6409839,2.16513449 11.828323,2.39141034 12.0168957,2.65362454 C12.4578611,3.26678363 12.6200284,3.68699933 12.6200284,4.06059659 C12.6200284,4.99767741 11.8582456,5.75946023 10.9211648,5.75946023 C9.98408395,5.75946023 9.22230114,4.99767741 9.22230114,4.06059659 C9.22230114,3.68701204 9.38446374,3.26681627 9.82542952,2.6536305 C10.0140715,2.39131995 10.2050838,2.16059987 10.3333613,2.01798805 Z M10.8743637,2.50403517 C10.8431335,2.53887663 10.7930209,2.59673885 10.7279452,2.67534253 C10.6215146,2.80389794 10.515076,2.94030666 10.415875,3.07824765 C10.0572583,3.57692276 9.94957386,3.85595476 9.94957386,4.06059659 C9.94957386,4.59601577 10.3857456,5.0321875 10.9211648,5.0321875 C11.456584,5.0321875 11.8927557,4.59601577 11.8927557,4.06059659 C11.8927557,3.85594173 11.7850687,3.57689798 11.4264545,3.07824765 C11.3272609,2.94031691 11.220834,2.80392737 11.1143881,2.67535769 C11.0493322,2.59678046 10.9992405,2.53894009 10.9676795,2.50371649 L10.9211646,2.451881 L10.8743637,2.50403517 Z M8.91926136,6.12122159 L10.4988068,6.12122159 L10.4988068,8.060625 L8.91926136,8.060625 L8.91926136,6.12122159 Z M9.64653409,6.84849432 L9.64653409,7.33335227 L9.77153409,7.33335227 L9.77153409,6.84849432 L9.64653409,6.84849432 Z M8.91926136,8.24241477 L10.4988068,8.24241477 L10.4988068,10.1818182 L8.91926136,10.1818182 L8.91926136,8.24241477 Z M9.64653409,9.45454545 L9.77153409,9.45454545 L9.77153409,8.9696875 L9.64653409,8.9696875 L9.64653409,9.45454545 Z M10.4988068,14.7840909 L8.91926136,14.7840909 L8.91926136,10.8465909 L12.9230398,10.8465909 L12.9230398,14.7840909 L11.3434943,14.7840909 L11.3434943,12.4261364 L10.4988068,12.4261364 L10.4988068,14.7840909 Z M12.195767,11.5738636 L9.64653409,11.5738636 L9.64653409,14.0568182 L9.77153409,14.0568182 L9.77153409,11.6988636 L12.070767,11.6988636 L12.070767,14.0568182 L12.195767,14.0568182 L12.195767,11.5738636 Z M12.9230398,10.1818182 L11.3434943,10.1818182 L11.3434943,8.24241477 L12.9230398,8.24241477 L12.9230398,10.1818182 Z M12.195767,8.9696875 L12.070767,8.9696875 L12.070767,9.45454545 L12.195767,9.45454545 L12.195767,8.9696875 Z M12.9230398,8.06059659 L11.3434943,8.06059659 L11.3434943,6.12119318 L12.9230398,6.12119318 L12.9230398,8.06059659 Z M12.195767,6.84846591 L12.070767,6.84846591 L12.070767,7.33332386 L12.195767,7.33332386 L12.195767,6.84846591 Z" id="Shape" fill-rule="nonzero"></path>
                <rect id="Rectangle" x="11.6363636" y="6.54545455" width="1" height="1.45454545"></rect>
                <rect id="Rectangle" x="9.45454545" y="6.54545455" width="1" height="1.45454545"></rect>
                <rect id="Rectangle" x="9.45454545" y="8.72727273" width="1" height="1.45454545"></rect>
                <rect id="Rectangle" x="11.6363636" y="8.72727273" width="1" height="1.45454545"></rect>
                <rect id="Rectangle" x="9.45454545" y="10.9090909" width="1" height="3.63636364"></rect>
                <rect id="Rectangle" x="9.45454545" y="10.9090909" width="2.90909091" height="1.45454545"></rect>
                <path d="M10.9211648,3.21519886 C10.6461932,3.57724432 10.4396307,3.92920455 10.4382102,4.06065341 C10.4382102,4.32690341 10.654858,4.54355114 10.9211648,4.54355114 C11.1874432,4.54355114 11.4040909,4.32693182 11.4041193,4.06065341 C11.4026989,3.92920455 11.1961364,3.57727273 10.9211648,3.21519886 Z" id="Path" fill-rule="nonzero"></path>
                <rect id="Rectangle" x="11.6363636" y="11.6363636" width="1" height="2.90909091"></rect>
                <rect id="Rectangle" x="2.18181818" y="13.8181818" width="2.90909091" height="1"></rect>
            </g>
        </g>
    </g>
</svg>