<?xml version="1.0" encoding="UTF-8"?>
<svg width="40px" height="40px" viewBox="0 0 40 40" version="1.1" xmlns="http://www.w3.org/2000/svg" xmlns:xlink="http://www.w3.org/1999/xlink">
    <!-- Generator: Sketch 55.2 (78181) - https://sketchapp.com -->
    <title>Group 10</title>
    <desc>Created with Sketch.</desc>
    <defs>
        <circle id="path-1" cx="18" cy="18" r="16"></circle>
        <filter x="-18.8%" y="-18.8%" width="137.5%" height="137.5%" filterUnits="objectBoundingBox" id="filter-2">
            <feOffset dx="0" dy="0" in="SourceAlpha" result="shadowOffsetOuter1"></feOffset>
            <feGaussianBlur stdDeviation="2" in="shadowOffsetOuter1" result="shadowBlurOuter1"></feGaussianBlur>
            <feColorMatrix values="0 0 0 0 0   0 0 0 0 0   0 0 0 0 0  0 0 0 0.4 0" type="matrix" in="shadowBlurOuter1"></feColorMatrix>
        </filter>
    </defs>
    <g id="Page-1" stroke="none" stroke-width="1" fill="none" fill-rule="evenodd">
        <g id="Group-10" transform="translate(2.000000, 2.000000)">
            <g id="Group-16-Copy-2">
                <g id="Oval">
                    <use fill="black" fill-opacity="1" filter="url(#filter-2)" xlink:href="#path-1"></use>
                    <use fill="#FFFFFF" fill-rule="evenodd" xlink:href="#path-1"></use>
                </g>
                <circle id="Oval" stroke="#013E5D" cx="18" cy="18" r="18"></circle>
            </g>
            <g id="water" transform="translate(9.000000, 9.000000)" fill="#013E5D" fill-rule="nonzero">
                <path d="M16.1804141,16.0039062 L16.1804141,0 L7.64780859,0 L7.64780859,5.87695312 L3.22070312,5.87695312 L3.22070312,7.86751367 L0.918630859,9.28419141 L0.918630859,11.1894531 L6.51890234,11.1894531 L6.51890234,9.28419141 L4.21679688,7.86751367 L4.21679688,6.87304688 L7.64780859,6.87304688 L7.64780859,16.0039062 L6.51890234,16.0039062 L6.51890234,12.1855469 L0.918630859,12.1855469 L0.918630859,16.0039062 L0,16.0039062 L0,17 L17,17 L17,16.0039062 L16.1804141,16.0039062 Z M5.52280859,16.0039063 L1.91472461,16.0039063 L1.91472461,15.0188691 L5.52280859,15.0188691 L5.52280859,16.0039063 Z M10.9785137,2.49956445 C11.256623,2.11284766 11.5318438,1.80525391 11.5434316,1.79237109 L11.9141113,1.37929102 L12.284791,1.79237109 C12.2963789,1.80528711 12.5715996,2.11284766 12.849709,2.49956445 C13.4098789,3.27847656 13.4746582,3.66947656 13.4746582,3.89582227 C13.4746582,4.75631445 12.7746035,5.45636914 11.9141113,5.45636914 C11.0536191,5.45636914 10.3535645,4.75631445 10.3535645,3.89582227 C10.3535645,3.66947656 10.4183438,3.27850977 10.9785137,2.49956445 Z M9.99938672,6.72917773 L10.9954805,6.72917773 L10.9954805,8.14585547 L9.99938672,8.14585547 L9.99938672,6.72917773 Z M9.99938672,9.20832227 L10.9954805,9.20832227 L10.9954805,10.625 L9.99938672,10.625 L9.99938672,9.20832227 Z M13.8288027,16.0039062 L12.832709,16.0039062 L12.832709,13.2480469 L10.9954805,13.2480469 L10.9954805,16.0039062 L9.99938672,16.0039062 L9.99938672,12.2519531 L13.8288027,12.2519531 L13.8288027,16.0039062 Z M13.8288027,10.625 L12.832709,10.625 L12.832709,9.20832227 L13.8288027,9.20832227 L13.8288027,10.625 Z M13.8288027,8.14582227 L12.832709,8.14582227 L12.832709,6.72914453 L13.8288027,6.72914453 L13.8288027,8.14582227 Z" id="Shape"></path>
                <path d="M11.9141113,2.90776367 C11.5927383,3.3309043 11.3513184,3.74225781 11.3496582,3.89588867 C11.3496582,4.20706836 11.6028652,4.46027539 11.9141113,4.46027539 C12.2253242,4.46027539 12.4785312,4.20710156 12.4785645,3.89588867 C12.4769043,3.74225781 12.2354844,3.3309375 11.9141113,2.90776367 Z" id="Path"></path>
            </g>
        </g>
    </g>
</svg>