<?xml version="1.0" encoding="UTF-8"?>
<svg width="40px" height="40px" viewBox="0 0 40 40" version="1.1" xmlns="http://www.w3.org/2000/svg" xmlns:xlink="http://www.w3.org/1999/xlink">
    <!-- Generator: Sketch 55.2 (78181) - https://sketchapp.com -->
    <title>Group 17</title>
    <desc>Created with Sketch.</desc>
    <defs>
        <circle id="path-1" cx="16" cy="16" r="16"></circle>
        <filter x="-18.8%" y="-18.8%" width="137.5%" height="137.5%" filterUnits="objectBoundingBox" id="filter-2">
            <feOffset dx="0" dy="0" in="SourceAlpha" result="shadowOffsetOuter1"></feOffset>
            <feGaussianBlur stdDeviation="2" in="shadowOffsetOuter1" result="shadowBlurOuter1"></feGaussianBlur>
            <feColorMatrix values="0 0 0 0 0   0 0 0 0 0   0 0 0 0 0  0 0 0 0.4 0" type="matrix" in="shadowBlurOuter1"></feColorMatrix>
        </filter>
    </defs>
    <g id="Page-1" stroke="none" stroke-width="1" fill="none" fill-rule="evenodd">
        <g id="Group-17" transform="translate(4.000000, 4.000000)">
            <g id="Oval">
                <use fill="black" fill-opacity="1" filter="url(#filter-2)" xlink:href="#path-1"></use>
                <use fill="#FFFFFF" fill-rule="evenodd" xlink:href="#path-1"></use>
            </g>
            <g id="water" transform="translate(8.000000, 8.000000)" fill="#013E5D" fill-rule="nonzero">
                <path d="M15.228625,15.0625 L15.228625,0 L7.1979375,0 L7.1979375,5.53125 L3.03125,5.53125 L3.03125,7.40471875 L0.86459375,8.7380625 L0.86459375,10.53125 L6.1354375,10.53125 L6.1354375,8.7380625 L3.96875,7.40471875 L3.96875,6.46875 L7.1979375,6.46875 L7.1979375,15.0625 L6.1354375,15.0625 L6.1354375,11.46875 L0.86459375,11.46875 L0.86459375,15.0625 L0,15.0625 L0,16 L16,16 L16,15.0625 L15.228625,15.0625 Z M5.1979375,15.0625 L1.80209375,15.0625 L1.80209375,14.1354062 L5.1979375,14.1354062 L5.1979375,15.0625 Z M10.3327187,2.35253125 C10.5944687,1.9885625 10.8535,1.6990625 10.8644062,1.6869375 L11.2132812,1.29815625 L11.5621562,1.6869375 C11.5730625,1.69909375 11.8320937,1.9885625 12.0938437,2.35253125 C12.6210625,3.085625 12.6820312,3.453625 12.6820312,3.66665625 C12.6820312,4.47653125 12.0231562,5.13540625 11.2132812,5.13540625 C10.4034062,5.13540625 9.74453125,4.47653125 9.74453125,3.66665625 C9.74453125,3.453625 9.8055,3.08565625 10.3327187,2.35253125 Z M9.4111875,6.33334375 L10.3486875,6.33334375 L10.3486875,7.6666875 L9.4111875,7.6666875 L9.4111875,6.33334375 Z M9.4111875,8.66665625 L10.3486875,8.66665625 L10.3486875,10 L9.4111875,10 L9.4111875,8.66665625 Z M13.0153437,15.0625 L12.0778437,15.0625 L12.0778437,12.46875 L10.3486875,12.46875 L10.3486875,15.0625 L9.4111875,15.0625 L9.4111875,11.53125 L13.0153437,11.53125 L13.0153437,15.0625 Z M13.0153437,10 L12.0778437,10 L12.0778437,8.66665625 L13.0153437,8.66665625 L13.0153437,10 Z M13.0153437,7.66665625 L12.0778437,7.66665625 L12.0778437,6.3333125 L13.0153437,6.3333125 L13.0153437,7.66665625 Z" id="Shape"></path>
                <path d="M11.2132812,2.73671875 C10.9108125,3.13496875 10.6835937,3.522125 10.6820312,3.66671875 C10.6820312,3.95959375 10.9203437,4.19790625 11.2132812,4.19790625 C11.5061875,4.19790625 11.7445,3.959625 11.7445312,3.66671875 C11.7429687,3.522125 11.51575,3.135 11.2132812,2.73671875 Z" id="Path"></path>
            </g>
        </g>
    </g>
</svg>