<?xml version="1.0" encoding="UTF-8"?>
<svg width="40px" height="40px" viewBox="0 0 40 40" version="1.1" xmlns="http://www.w3.org/2000/svg" xmlns:xlink="http://www.w3.org/1999/xlink">
    <!-- Generator: Sketch 55.2 (78181) - https://sketchapp.com -->
    <title>Group 2 Copy 2</title>
    <desc>Created with Sketch.</desc>
    <defs>
        <circle id="path-1" cx="16" cy="16" r="16"></circle>
        <filter x="-18.8%" y="-18.8%" width="137.5%" height="137.5%" filterUnits="objectBoundingBox" id="filter-2">
            <feOffset dx="0" dy="0" in="SourceAlpha" result="shadowOffsetOuter1"></feOffset>
            <feGaussianBlur stdDeviation="2" in="shadowOffsetOuter1" result="shadowBlurOuter1"></feGaussianBlur>
            <feColorMatrix values="0 0 0 0 0   0 0 0 0 0   0 0 0 0 0  0 0 0 0.4 0" type="matrix" in="shadowBlurOuter1"></feColorMatrix>
        </filter>
    </defs>
    <g id="Page-1" stroke="none" stroke-width="1" fill="none" fill-rule="evenodd">
        <g id="Group-2-Copy-2" transform="translate(4.000000, 4.000000)">
            <g id="Oval">
                <use fill="black" fill-opacity="1" filter="url(#filter-2)" xlink:href="#path-1"></use>
                <use fill="#FFFFFF" fill-rule="evenodd" xlink:href="#path-1"></use>
            </g>
            <g id="Group-13" transform="translate(8.000000, 8.000000)">
                <g id="Group-14">
                    <g id="Group-3">
                        <path d="M16,7.9047619 L16,9.49206349 C14.4024618,9.10364307 13.3638179,8.73802633 12.8840681,8.39521328 C12.2519297,7.94382439 11.7528516,7.58730159 10.6665989,7.58730159 C9.58054958,7.58730159 9.08126806,7.94382439 8.44933304,8.39521328 C7.72970843,8.90922619 6.91384904,9.49206349 5.33340118,9.49206349 C3.75274983,9.49206349 2.93709388,8.90943286 2.21726578,8.39521328 C1.58533081,7.94382439 1.08625273,7.58730159 0,7.58730159 L0,6 C1.58044786,6 2.39630725,6.58263063 3.11613535,7.09664354 C3.74807037,7.54803243 4.24735189,7.9047619 5.33340118,7.9047619 C6.41945042,7.9047619 6.91873199,7.54803243 7.55066696,7.09664354 C8.27029157,6.58263063 9.08615101,6 10.6665989,6 C12.2472502,6 13.0631096,6.58263063 13.7827342,7.09664354 C14.2040242,7.39756947 14.9431128,7.66694226 16,7.9047619 Z M16,2.9047619 L16,4.49206349 C14.4024618,4.10364307 13.3638179,3.73802633 12.8840681,3.39521328 C12.2519297,2.94382439 11.7528516,2.58730159 10.6665989,2.58730159 C9.58054958,2.58730159 9.08126806,2.94382439 8.44933304,3.39521328 C7.72970843,3.90922619 6.91384904,4.49206349 5.33340118,4.49206349 C3.75274983,4.49206349 2.93709388,3.90943286 2.21726578,3.39521328 C1.58533081,2.94382439 1.08625273,2.58730159 8.8817842e-16,2.58730159 L8.8817842e-16,1 C1.58044786,1 2.39630725,1.58263063 3.11613535,2.09664354 C3.74807037,2.54803243 4.24735189,2.9047619 5.33340118,2.9047619 C6.41945042,2.9047619 6.91873199,2.54803243 7.55066696,2.09664354 C8.27029157,1.58263063 9.08615101,1 10.6665989,1 C12.2472502,1 13.0631096,1.58263063 13.7827342,2.09664354 C14.2040242,2.39756947 14.9431128,2.66694226 16,2.9047619 Z M16,12.9047619 L16,14.4920635 C14.4024618,14.1036431 13.3638179,13.7380263 12.8840681,13.3952133 C12.2519297,12.9438244 11.7528516,12.5873016 10.6665989,12.5873016 C9.58054958,12.5873016 9.08126806,12.9438244 8.44933304,13.3952133 C7.72970843,13.9092262 6.91384904,14.4920635 5.33340118,14.4920635 C3.75274983,14.4920635 2.93709388,13.9094329 2.21726578,13.3952133 C1.58533081,12.9438244 1.08625273,12.5873016 8.8817842e-16,12.5873016 L8.8817842e-16,11 C1.58044786,11 2.39630725,11.5826306 3.11613535,12.0966435 C3.74807037,12.5480324 4.24735189,12.9047619 5.33340118,12.9047619 C6.41945042,12.9047619 6.91873199,12.5480324 7.55066696,12.0966435 C8.27029157,11.5826306 9.08615101,11 10.6665989,11 C12.2472502,11 13.0631096,11.5826306 13.7827342,12.0966435 C14.2040242,12.3975695 14.9431128,12.6669423 16,12.9047619 Z" id="Combined-Shape" fill="#955196" fill-rule="nonzero"></path>
                        <rect id="Rectangle-Copy-3" stroke="#FFFFFF" fill="#D8D8D8" x="9.5" y="0.5" width="1" height="16"></rect>
                        <rect id="Rectangle-Copy-4" stroke="#FFFFFF" fill="#D8D8D8" x="5.5" y="0.5" width="1" height="16"></rect>
                        <rect id="Rectangle-Copy-6" stroke="#FFFFFF" fill="#D8D8D8" x="1.5" y="0.5" width="1" height="16"></rect>
                        <rect id="Rectangle-Copy-5" stroke="#FFFFFF" fill="#D8D8D8" x="13.5" y="0.5" width="1" height="15"></rect>
                    </g>
                </g>
            </g>
        </g>
    </g>
</svg>