<?xml version="1.0" encoding="UTF-8"?>
<svg width="24px" height="24px" viewBox="0 0 24 24" version="1.1" xmlns="http://www.w3.org/2000/svg" xmlns:xlink="http://www.w3.org/1999/xlink">
    <!-- Generator: Sketch 55.1 (78136) - https://sketchapp.com -->
    <title>Combined Shape</title>
    <desc>Created with Sketch.</desc>
    <g id="Final-UI-V2" stroke="none" stroke-width="1" fill="none" fill-rule="evenodd">
        <g id="6" transform="translate(-534.000000, -300.000000)" fill="#212121">
            <g id="Group-11" transform="translate(-1151.000000, -730.000000)">
                <path d="M1697,1048.54545 C1693.38505,1048.54545 1690.45455,1045.61495 1690.45455,1042 C1690.45455,1038.38505 1693.38505,1035.45455 1697,1035.45455 C1700.61495,1035.45455 1703.54545,1038.38505 1703.54545,1042 C1703.54545,1045.61495 1700.61495,1048.54545 1697,1048.54545 Z M1697,1054 C1690.37258,1054 1685,1048.62742 1685,1042 C1685,1035.37258 1690.37258,1030 1697,1030 C1703.62742,1030 1709,1035.37258 1709,1042 C1709,1048.62742 1703.62742,1054 1697,1054 Z M1697,1051.81818 C1702.42243,1051.81818 1706.81818,1047.42243 1706.81818,1042 C1706.81818,1036.57757 1702.42243,1032.18182 1697,1032.18182 C1691.57757,1032.18182 1687.18182,1036.57757 1687.18182,1042 C1687.18182,1047.42243 1691.57757,1051.81818 1697,1051.81818 Z" id="Combined-Shape"></path>
            </g>
        </g>
    </g>
</svg>