<svg id="Layer_1" data-name="Layer 1" xmlns="http://www.w3.org/2000/svg" viewBox="0 0 24 24"><title>pump</title><path d="M5.34,8.11h0a1.59,1.59,0,0,0-1.6,1.58v8.85a1.6,1.6,0,0,0,1.6,1.59h0a1.59,1.59,0,0,0,1.59-1.59V9.69A1.59,1.59,0,0,0,5.34,8.11Z"/><polygon points="6.59 3.77 8.18 3.77 8.18 2.98 6.59 2.98 6.59 0 4.05 0 4.05 2.98 2.49 2.98 2.49 3.77 4.05 3.77 6.59 3.77"/><path d="M4.05,7.76l.6-.29A1.59,1.59,0,0,1,6,7.47l.59.29v-3H8.18V4H2.49v.8H4.05Z"/><path d="M0,12v4.22a.57.57,0,0,0,.57.57H3.21v-.92H1.32V15.4H3.21v-.54H1.32v-.49H3.21v-.53H1.32v-.49H3.21v-.54H1.32v-.49H3.21v-.88H.57A.57.57,0,0,0,0,12Z"/><path d="M11.08,19.34V8.9h-.7v.58H9.81a.57.57,0,0,0-.57.56v1H7.41v6.14H9.24v1a.57.57,0,0,0,.57.56h.57v.58Z"/><path d="M23.43,9.48h-.56V8.9h-.71V19.34h.71v-.58h.56A.56.56,0,0,0,24,18.2V10A.56.56,0,0,0,23.43,9.48Z"/><rect x="11.54" y="10.46" width="10.07" height="3.25"/><rect x="11.54" y="14.94" width="10.07" height="2.95"/><rect x="11.54" y="13.99" width="10.07" height="0.64"/><rect x="11.54" y="9.55" width="10.07" height="0.64"/><rect x="11.54" y="18.19" width="10.07" height="0.64"/><rect x="10.59" y="22.9" width="11.97" height="1.1"/><path d="M20.54,19.8a2.22,2.22,0,0,1,0-.45H12.9c0,.12,0,.24,0,.36a3,3,0,0,1-2.33,2.91h12A3,3,0,0,1,20.54,19.8Z"/></svg>