<svg height="480pt" viewBox="0 0 480 480.00452" width="480pt" xmlns="http://www.w3.org/2000/svg"><path d="m424.003906 224.203125v-40.199219c0-13.253906-10.746094-24-24-24-4.421875 0-8-3.582031-8-8v-128c0-13.253906-10.746094-23.99999975-24-23.99999975h-32c-13.257812 0-24 10.74609375-24 23.99999975v8h-8c-13.257812 0-24 10.746094-24 24h-8c-13.257812 0-24 10.746094-24 24v56c0 4.417969-3.582031 8-8 8h-8v-24c-.003906-2.121094-.84375-4.15625-2.34375-5.65625l-24-24c-3.125-3.121094-8.191406-3.121094-11.3125 0l-10.34375 10.34375v-92.6875c0-2.574218-1.234375-4.988281-3.320312-6.496094-2.082032-1.507812-4.765625-1.914062-7.203125-1.085937l-48 16c-3.265625 1.082031-5.472657 4.136719-5.476563 7.582031v68.90625l-37.472656-12.488281c-2.4375-.8125-5.121094-.40625-7.203125 1.097656-2.085937 1.503907-3.324219 3.914063-3.324219 6.484375v24h-32c-4.421875 0-8 3.582032-8 8v9.761719l-25.9375 6.480469c-3.5625.886718-6.06249975 4.085937-6.06249975 7.757812v24c0 4.417969 3.57812475 8 7.99999975 8h216c4.417969 0 8-3.582031 8-8v-8h8c13.253906 0 24-10.746094 24-24v-56c0-4.417968 3.578125-8 8-8h8v104h16v-40h16v40h16v-40h16v40h16v-120c0-13.253906-10.746094-24-24-24h-8v-8c0-4.417968 3.578125-8 8-8h32c4.417969 0 8 3.582032 8 8v128c0 13.253906 10.742188 24 24 24 4.417969 0 8 3.582032 8 8v40.199219c-17.601562.800781-56 4.714844-56 23.800781v8h-16v-40c0-16.574218-28.128906-24-56-24-27.875 0-56 7.425782-56 24v40h-16v-40c0-4.417968-3.582031-8-8-8h-128c-4.421875 0-8 3.582032-8 8v40h-8c-13.257812 0-24 10.746094-24 24v78.960938c-7.097656-1.863282-14.195312-3.945313-21.304687-6.488282-2.449219-.875-5.171875-.507812-7.300781.988282-2.128907 1.5-3.39453175 3.9375-3.39453175 6.539062v112c0 4.417969 3.57812475 8 7.99999975 8h464c4.417969 0 8-3.582031 8-8v-112c-.003906-3.375-2.125-6.390625-5.304687-7.527344-79.320313-28.417968-159.015625-14.152343-236.113281-.34375-65.472657 11.734376-127.917969 22.832032-190.582032 10.519532v-82.648438c0-4.417968 3.578125-8 8-8h8v40c0 4.417969 3.578125 8 8 8h128c4.417969 0 8-3.582031 8-8v-40h16v24c0 16.578125 28.125 24 56 24 27.871094 0 56-7.421875 56-24v-24h16v24c0 23.328125 57.453125 24 64 24 6.542969 0 64-.671875 64-24v-48c0-19.085937-38.402344-23-56-23.800781zm-408-73.949219 16-4v13.75h-16zm32-14.25v-8h24v32h-24zm40-16v-20.894531l32 10.664063v50.230468h-32zm48-16v-74.230468l32-10.664063v140.894531h-32zm80 56h-32v-36.6875l16-16 16 16zm80-40v-25.472656c2.558594.949219 5.265625 1.445312 8 1.472656h8v24zm32 0v-24h8c2.730469-.027344 5.4375-.523437 8-1.472656v25.472656zm16-64v16c0 4.417969-3.582031 8-8 8h-32c-4.421875 0-8-3.582031-8-8v-16c0-4.417968 3.578125-8 8-8h32c4.417969 0 8 3.582032 8 8zm-312 319.503906v15.457032c-5.335937-1.398438-10.667968-2.984375-16-4.761719v-15.085937c5.335938 1.6875 10.664063 3.085937 16 4.390624zm432 37.488282c-75.785156-23.566406-151.785156-10.054688-225.417968 3.136718-76.601563 13.726563-149.070313 26.601563-222.582032 2.070313v-15.085937c75.78125 23.558593 151.78125 9.953124 225.414063-3.242188 76.609375-13.71875 149.082031-26.703125 222.585937-2.175781zm-448 51.007812v-28.933594c29.195313 8.839844 59.566406 13.1875 90.070313 12.886719 45.5-1.359375 90.792969-6.738281 135.34375-16.082031 76.609375-13.71875 149.082031-26.582031 222.585937-2.070312v34.199218zm225.414063-96.128906c76.609375-13.71875 149.082031-26.703125 222.585937-2.175781v15.296875c-75.785156-23.558594-151.785156-10.054688-225.417968 3.136718-65.472657 11.734376-127.917969 22.832032-190.582032 10.519532v-15.769532c65.125 11.898438 130.140625.320313 193.414063-11.007812zm-97.414063-111.871094h48v16h-48zm-16 16h-48v-16h48zm64-32h-48v-16h48zm-64-16v16h-48v-16zm-48 64h48v16h-48zm64 16v-16h48v16zm136-96c22.109375 0 35.511719 5.039063 39.269532 8-3.757813 2.960938-17.160157 8-39.269532 8-22.113281 0-35.511718-5.039062-39.273437-8 3.761719-2.960937 17.160156-8 39.273437-8zm0 96c-23.914062 0-37.648437-5.894531-40-8.679687v-61.71875c12.828125 4.554687 26.386719 6.726562 40 6.398437 13.609375.328125 27.167969-1.84375 40-6.398437v61.742187c-2.355468 2.761719-16.089844 8.65625-40 8.65625zm136-64c15.949219-.941406 31.90625 1.796875 46.628906 8-14.722656 6.207032-30.679687 8.941406-46.628906 8-15.953125.941406-31.90625-1.792968-46.632812-8 14.726562-6.203125 30.679687-8.941406 46.632812-8zm0 64c-27.824218 0-44.640625-5.742187-48-9.023437v-30.113281c31.292969 9.515624 64.707032 9.515624 96 0v30.113281c-3.363281 3.28125-20.175781 9.023437-48 9.023437zm0 0"/></svg>