<svg height="512pt" viewBox="0 -55 512 512" width="512pt" xmlns="http://www.w3.org/2000/svg"><path d="m190.640625 155.75h20.117187v20.113281h-20.117187zm0 0"/><path d="m512 402.65625v-30h-46.394531v-96.429688l13.265625 9.0625 16.734375-24.492187.1875-.277344-.1875-.128906-30-20.496094-73.304688-50.078125-73.300781 50.078125-30 20.496094v-145.878906l29.195312 24.839843 19.4375-22.847656-136.933593-116.503906-136.933594 116.503906 19.4375 22.847656 29.195313-24.839843v258.144531h-49.671876v-40.351562c18.992188-6.304688 32.730469-24.222657 32.730469-45.300782 0-31.292968-33.382812-65.152344-37.191406-68.910156l-10.539063-10.398438-10.535156 10.398438c-3.808594 3.757812-37.191406 37.617188-37.191406 68.910156 0 21.078125 13.738281 38.996094 32.730469 45.300782v40.351562h-32.7226565v30zm-351.359375-276.90625h80.117187v80.113281h-80.117187zm53.597656 246.90625v-39.214844c0-7.464844-6.074219-13.539062-13.539062-13.539062-7.464844 0-13.539063 6.074218-13.539063 13.539062v39.214844h-30v-39.214844c0-24.007812 19.53125-43.539062 43.539063-43.539062 24.007812 0 43.539062 19.53125 43.539062 43.539062v39.214844zm74.761719 0v-111.859375l16.734375 24.492187 13.265625-9.0625v96.429688zm116.84375 0v-48.800781h-27.078125v48.800781h-30v-78.800781h87.078125v78.800781zm0 0"/></svg>