<?xml version="1.0" encoding="iso-8859-1"?>
<!-- Generator: Adobe Illustrator 19.0.0, SVG Export Plug-In . SVG Version: 6.00 Build 0)  -->
<svg version="1.1" id="Capa_1" xmlns="http://www.w3.org/2000/svg" xmlns:xlink="http://www.w3.org/1999/xlink" x="0px" y="0px"
	 viewBox="0 0 512 512" style="enable-background:new 0 0 512 512;" xml:space="preserve">
<g>
	<g>
		<path d="M358.825,87.575c-9.679,12.744-16.95,25.133-17,29.76c0,9.372,7.626,16.998,17,16.998c9.373,0,16.999-7.625,17-16.998
			C375.775,112.708,368.504,100.32,358.825,87.575z"/>
	</g>
</g>
<g>
	<g>
		<path d="M487.316,482V0H230.334v177H97v59.951l-69.333,42.667V337h168.667v-57.382L127,236.951V207h103.334v275h-34V367H27.667
			v115H0v30h512v-30H487.316z M166.334,482H57.667v-29.667h108.667V482z M330.647,75.281c8.376-11.647,16.665-20.911,17.014-21.299
			l11.164-12.441l11.164,12.441c0.349,0.389,8.638,9.652,17.014,21.299c16.871,23.459,18.822,35.235,18.822,42.052
			c0,25.916-21.084,47-47,47s-47-21.084-47-47C311.825,110.516,313.776,98.741,330.647,75.281z M301.158,202.667h30v42.667h-30
			V202.667z M301.158,277.333h30V320h-30V277.333z M416.491,482h-30v-83h-55.333v83h-30V369h115.333V482z M416.491,320h-30v-42.667
			h30V320z M416.491,245.333h-30v-42.667h30V245.333z"/>
	</g>
</g>
<g>
</g>
<g>
</g>
<g>
</g>
<g>
</g>
<g>
</g>
<g>
</g>
<g>
</g>
<g>
</g>
<g>
</g>
<g>
</g>
<g>
</g>
<g>
</g>
<g>
</g>
<g>
</g>
<g>
</g>
</svg>
